# xmcd
#
# Track frame offsets:
#	150
#	19596
#	37185
#	59286
#	76379
#	95923
#	111519
#	130755
#	151599
#	171230
#	179074
#	216342
#	233210
#	250727
#	269105
#	272817
#	312677
#	325919
#
# Disc length: 4541 seconds
#
# Revision: 1
# Processed by: cddbd v1.5.2PL0 Copyright (c) Steve Scherf et al.
# Submitted via: audiograbber 1.83.01
#
DISCID=1311bb12
DTITLE=Garth Brooks - Live Ireland
DYEAR=1900
DGENRE=Country
TTITLE0=The Old Stuff
TTITLE1=Beaches Of Cheyenne
TTITLE2=Two Of A Kind (Workin' On A Full House)
TTITLE3=Unanswered Prayers
TTITLE4=Tear It Up (And Burn It Down)
TTITLE5=The River
TTITLE6=We Shall Be Free
TTITLE7=Callin' Baton Rouge
TTITLE8=If Tomarrow Never Comes
TTITLE9=Ireland
TTITLE10=Friends In Low Places
TTITLE11=That Old Wind (Studio)
TTITLE12=Fever
TTITLE13=Ain't Goin' Down (Til The Sun Comes Up)
TTITLE14=Intro To American Pie
TTITLE15=American Pie
TTITLE16=Cowboy Cadillac
TTITLE17=Two Pina Coladas
EXTD=
EXTT0=
EXTT1=
EXTT2=
EXTT3=
EXTT4=
EXTT5=
EXTT6=
EXTT7=
EXTT8=
EXTT9=
EXTT10=
EXTT11=
EXTT12=
EXTT13=
EXTT14=
EXTT15=
EXTT16=
EXTT17=
PLAYORDER=
